{"title":"Duelle.1976.DVDRip.x264","uid":8427737,"size":1943605065,"categoryP":"video","categoryS":"movies","magnet":"?xt=urn:btih:54fe46e142d2f0e1ba09f0e43575042e4a59c3f7&amp;dn=Duelle.1976.DVDRip.x264&amp;tr=udp%3A%2F%2Ftracker.openbittorrent.com%3A80&amp;tr=udp%3A%2F%2Fopen.demonii.com%3A1337&amp;tr=udp%3A%2F%2Ftracker.coppersurfer.tk%3A6969&amp;tr=udp%3A%2F%2Fexodus.desync.com%3A6969","seeders":0,"leechers":1,"uploader":"tonioferah","files":1,"time":1367399215,"description":"This is part one of what was to be Jacques Rivette's four-part project 'Scenes de la Vie Parallelle'. The idea was to create four different films with a running sub-plot involving a mythical war between goddesses of the Sun and the Moon, fighting for possession of a mysterious jewel. This one was a &quot;film noir&quot; modelled after &quot;The Seventh Victim&quot; (which Rivette screened for the cast before the shooting began) with bits of 'Kiss Me Deadly', 'Lady From Shanghai' and 'Les Dames du Bois de Boulogne' thrown in for good measure. An uncanny mood piece it takes place in a weirdly unpopulated Paris. Jean Weiner (who used to play piano at 'Le Bouef sur le Toit') supplies live piano improvisations here, much in the manner of an accompanist for a silent movie.\n\n_______________________________________\n\n\nGeneral\nComplete name                    : Duelle.1976.DVDRip.x264.mkv\nFormat                           : Matroska\nFile size                        : 1.81 GiB\nDuration                         : 1h 55mn\nOverall bit rate                 : 2 244 Kbps\nWriting application              : HandBrake 0.9.8\nWriting library                  : libmkv 0.6.5\n\nVideo\nID                               : 1\nFormat                           : AVC\nFormat/Info                      : Advanced Video Codec\nFormat profile                   : &lt;a class=&quot;__cf_email__&quot; href=&quot;/cdn-cgi/l/email-protection&quot; data-cfemail=&quot;aee6c7c9c6eee29d809f&quot;&gt;[email&amp;#160;protected]&lt;/a&gt;&lt;script data-cfhash='f9e31' type=&quot;text/javascript&quot;&gt;\n/* &lt;![CDATA[ */!function(){try{var t=&quot;currentScript&quot;in document?document.currentScript:function(){for(var t=document.getElementsByTagName(&quot;script&quot;),e=t.length;e--;)if(t[e].getAttribute(&quot;data-cfhash&quot;))return t[e]}();if(t&amp;&amp;t.previousSibling){var e,r,n,i,c=t.previousSibling,a=c.getAttribute(&quot;data-cfemail&quot;);if(a){for(e=&quot;&quot;,r=parseInt(a.substr(0,2),16),n=2;a.length-n;n+=2)i=parseInt(a.substr(n,2),16)^r,e+=String.fromCharCode(i);e=document.createTextNode(e),c.parentNode.replaceChild(e,c)}t.parentNode.removeChild(t);}}catch(u){}}()/* ]]&gt; */&lt;/script&gt;\nFormat settings, CABAC           : Yes\nFormat settings, ReFrames        : 11 frames\nCodec ID                         : V_MPEG4/ISO/AVC\nDuration                         : 1h 55mn\nBit rate                         : 2 050 Kbps\nWidth                            : 718 pixels\nHeight                           : 546 pixels\nDisplay aspect ratio             : 1.870\nFrame rate                       : 25.000 fps\nColor space                      : YUV\nChroma subsampling               : 4:2:0\nBit depth                        : 8 bits\nScan type                        : Progressive\nBits/(Pixel*Frame)               : 0.209\nStream size                      : 1.62 GiB (89%)\nWriting library                  : x264 core 120\nEncoding settings                : cabac=1 / ref=11 / deblock=1:-2:-2 / analyse=0x3:0x133 / me=umh / subme=11 / psy=1 / psy_rd=1.00:0.00 / mixed_ref=1 / me_range=32 / chroma_me=1 / trellis=2 / 8x8dct=1 / cqm=0 / deadzone=21,11 / fast_pskip=0 / chroma_qp_offset=-2 / threads=3 / sliced_threads=0 / nr=0 / decimate=1 / interlaced=0 / bluray_compat=0 / constrained_intra=0 / bframes=9 / b_pyramid=2 / b_adapt=2 / b_bias=0 / direct=3 / weightb=1 / open_gop=0 / weightp=2 / keyint=250 / keyint_min=25 / scenecut=40 / intra_refresh=0 / rc_lookahead=50 / rc=abr / mbtree=1 / bitrate=2050 / ratetol=1.0 / qcomp=0.60 / qpmin=3 / qpmax=69 / qpstep=4 / ip_ratio=1.40 / aq=2:1.00\nLanguage                         : English\nColor primaries                  : BT.601-6 525, BT.1358 525, BT.1700 NTSC, SMPTE 170M\nTransfer characteristics         : BT.709-5, BT.1361\nMatrix coefficients              : BT.601-6 525, BT.1358 525, BT.1700 NTSC, SMPTE 170M\n\nAudio\nID                               : 2\nFormat                           : AC-3\nFormat/Info                      : Audio Coding 3\nMode extension                   : CM (complete main)\nCodec ID                         : A_AC3\nDuration                         : 1h 55mn\nBit rate mode                    : Constant\nBit rate                         : 192 Kbps\nChannel(s)                       : 2 channels\nChannel positions                : Front: L R\nSampling rate                    : 48.0 KHz\nBit depth                        : 16 bits\nCompression mode                 : Lossy\nStream size                      : 159 MiB (9%)\nLanguage                         : French\n\nText #1\nID                               : 3\nFormat                           : VobSub\nCodec ID                         : S_VOBSUB\nCodec ID/Info                    : The same subtitle format used on DVDs\nLanguage                         : English\n","torrent":{"xt":"urn:btih:54fe46e142d2f0e1ba09f0e43575042e4a59c3f7","amp;dn":"Duelle.1976.DVDRip.x264","amp;tr":["udp%3A%2F%2Ftracker.openbittorrent.com%3A80","udp%3A%2F%2Fopen.demonii.com%3A1337","udp%3A%2F%2Ftracker.coppersurfer.tk%3A6969","udp%3A%2F%2Fexodus.desync.com%3A6969"],"infoHash":"54fe46e142d2f0e1ba09f0e43575042e4a59c3f7","infoHashBuffer":{"type":"Buffer","data":[84,254,70,225,66,210,240,225,186,9,240,228,53,117,4,46,74,89,195,247]},"announce":[],"urlList":[]}}